<?xml version="1.0" encoding="utf-8"?>
<!-- Generator: Adobe Illustrator 25.0.1, SVG Export Plug-In . SVG Version: 6.00 Build 0)  -->
<svg version="1.0" id="Layer_1" xmlns="http://www.w3.org/2000/svg" xmlns:xlink="http://www.w3.org/1999/xlink" x="0px" y="0px"
	 viewBox="0 0 898.4 608" style="enable-background:new 0 0 898.4 608;" xml:space="preserve">
<style type="text/css">
	.st0{fill:#74A441;}
	.st1{fill:#323232;}
	.st2{clip-path:url(#SVGID_2_);}
	.st3{fill:url(#SVGID_3_);}
	.st4{fill:url(#SVGID_4_);}
	.st5{clip-path:url(#SVGID_6_);}
	.st6{fill:url(#SVGID_7_);}
	.st7{fill:url(#SVGID_8_);}
	.st8{clip-path:url(#SVGID_10_);}
	.st9{fill:url(#SVGID_11_);}
	.st10{fill:url(#SVGID_12_);}
</style>
<path class="st0" d="M98.7,227.4c4.7-2.7,10.2-3.9,15.6-3.4c2.2-2.7,5-5.6,8.3-7.2c15-8.3,39-1.1,74,19.5l0,0
	c36.1,21.1,54,37.9,54,55.6c-0.2,4.2-1.1,8.4-2.7,12.3c2.2,4.5,3.4,8.3,2.7,12.8c0,17.2-18.4,34.5-54,55.1l0,0
	c-35.6,20.6-59,27.8-74.6,19.5c-4.5-2.2-7.8-6.1-10.5-10.5c-4.7,0.1-9.3-1.1-13.4-3.4c-15-8.9-21.1-32.9-21.1-74.6
	C77.5,259.6,83.1,235.7,98.7,227.4z M125.4,246.8c-25.1,13.9-25.1,99.7,0,113.6c25.6,15,94.6-36.1,95.2-57.9
	C220.6,273.5,149.9,233.4,125.4,246.8L125.4,246.8z"/>
<path class="st1" d="M760,298.1h36.1c-0.5-6.1-2.2-11.2-5-13.9c-2.7-3.4-7.2-5-13.4-5c-4.8-0.1-9.4,1.7-12.8,5
	C762.3,287.5,760.6,291.9,760,298.1 M803,325.9h17.8c-2.3,9.1-7.6,17.1-15,22.8c-7.2,5.6-16.8,8.3-27.8,8.3
	c-13.4,0-24-4.5-31.8-13.4c-7.8-8.3-11.2-20.6-11.2-36.8c0-15,3.8-26.7,11.2-35.6c7.8-8.9,17.8-13.4,31.8-13.4s25.1,4.5,32.9,12.8
	c7.8,8.9,11.2,21.1,11.2,36.8v3.9c0,1.1,0,2.2-0.5,2.2h-61.2c0,7.2,2.2,12.8,5.6,16.1c2.7,3.8,7.8,5.6,13.9,5.6
	c3.8,0,7.2-0.5,10.1-2.2c0.7-0.1,1.2-0.5,1.6-1.1l2.2-2.2c0-0.5,1.1-1.6,2.7-2.7C798.6,326.2,800.8,325.9,803,325.9L803,325.9z
	 M699.3,232.9h12.8c6.3-0.1,11.5,4.9,11.7,11.2c0,0.1,0,0.3,0,0.4v110.2h-24.4L699.3,232.9z M661.6,306.9c0-8.3-1.6-15-5.6-20
	c-3.4-5-8.3-7.2-14.5-7.2c-6.7,0-11.7,2.2-15,7.2s-5.6,11.7-5.6,20c0,10.1,1.6,17.3,5,21.7c3.3,5,8.3,7.2,15,7.2s11.7-2.2,15-7.2
	S661.6,316.5,661.6,306.9L661.6,306.9z M620.9,244.6V273c2.7-4.7,6.5-8.5,11.2-11.2c4.9-2.4,10.2-3.5,15.6-3.4
	c11.2,0,20,4.5,27.3,13.9s10.5,21.1,10.5,35.6c0,14.5-3.3,26.7-10.5,35.6c-3.6,4.7-8.7,8-14.5,9.4c-5.7,2-11.7,2.9-17.8,2.7
	c-27.3,0-46.2-14.5-46.2-42.8v-80.2h12.3c3.1-0.1,6.1,1.1,8.3,3.4C619.6,238.3,621,241.4,620.9,244.6L620.9,244.6z M523.4,354.9H499
	v-60.1c0-5.6-1.6-10-5-12.3c-3.3-2.6-7.4-4-11.7-3.8c-4.1-0.2-8.1,1.2-11.2,3.8c-3.4,2.7-5,6.7-5,12.3v60.1h-25v-55.1
	c0-16.1,4.5-26.7,12.8-32.3c8.3-5.6,17.8-8.3,27.8-8.9c5.4,0,10.8,0.5,16.1,1.6c5.2,1,10,3.5,13.9,7.2c3.3-3.4,7.8-5,12.8-6.7
	c5-1.1,10-2.2,15-2.2c10.3-0.1,20.3,2.8,28.9,8.3c8.9,5.6,13.4,16.1,13.4,32.9v55.1h-12.2c-3.3,0.1-6.5-1.1-8.9-3.3
	c-2.2-2.2-3.4-5-3.4-8.9V294c0-5.6-1.6-10.1-5-12.3c-6.9-5.1-16.4-5.1-23.3,0c-3.3,2.7-5,6.7-5,12.3v60.6h-0.7L523.4,354.9z
	 M428.8,260.8v55.1c0,16.8-4.5,27.8-13.4,32.9c-8.8,5.1-18.8,7.8-28.9,7.8c-9.8-0.4-19.4-3.3-27.8-8.3c-8.3-5-12.8-16.1-12.8-32.3
	v-55.1H371V321c0,5.6,1.6,10.1,5,12.3c3.2,2.6,7.1,3.9,11.2,3.9c4.2,0.2,8.4-1.2,11.7-3.9c3.4-2.7,5-6.7,5-12.3v-48.4
	c-0.1-3.1,1.1-6.1,3.3-8.3c2.2-2.2,5-3.4,8.9-3.4C416,260.8,428.8,260.8,428.8,260.8z M282.5,354.9v-45.6c0-9.4,1.1-16.8,3.9-23.3
	c2.6-5.8,6.4-10.9,11.2-15c4.7-3.6,10-6.2,15.6-7.8c6-1.6,12.1-2.3,18.3-2.3h3.2v25.1h-8.3c-6.7,0-11.7,1.6-15,5s-5,8.3-5,15.6v48.4
	L282.5,354.9z"/>
<path class="st0" d="M139.9,275.3c-12.8,7.2-12.8,50.2,0,56.7c12.8,7.2,47.9-18.4,47.9-29.5C187.7,288.6,152.1,268.6,139.9,275.3z"
	/>
<g>
	<defs>
		<path id="SVGID_1_" d="M98.7,227.4c4.7-2.7,10.2-3.9,15.6-3.4c2.2-2.7,5-5.6,8.3-7.2c15-8.3,39-1.1,74,19.5l0,0
			c36.1,21.1,54,37.9,54,55.6c-0.2,4.2-1.1,8.4-2.7,12.3c2.2,4.5,3.4,8.3,2.7,12.8c0,17.2-18.4,34.5-54,55.1l0,0
			c-35.6,20.6-59,27.8-74.6,19.5c-4.5-2.2-7.8-6.1-10.5-10.5c-4.7,0.1-9.3-1.1-13.4-3.4c-15-8.9-21.1-32.9-21.1-74.6
			C77.5,259.6,83.1,235.7,98.7,227.4z M125.4,246.8c-25.1,13.9-25.1,99.7,0,113.6c25.6,15,94.6-36.1,95.2-57.9
			C220.6,273.5,149.9,233.4,125.4,246.8L125.4,246.8z"/>
	</defs>
	<clipPath id="SVGID_2_">
		<use xlink:href="#SVGID_1_"  style="overflow:visible;"/>
	</clipPath>
	<g class="st2">
		
			<linearGradient id="SVGID_3_" gradientUnits="userSpaceOnUse" x1="199.2751" y1="-114.0919" x2="226.0051" y2="-40.6519" gradientTransform="matrix(0.99 3.000000e-02 2.000000e-02 -0.99 -15.0152 222.1491)">
			<stop  offset="0.26" style="stop-color:#74A441;stop-opacity:0"/>
			<stop  offset="1" style="stop-color:#4C771F"/>
		</linearGradient>
		<path class="st3" d="M218.9,303.1c0,10.1-11.7,21.1-24.5,31.8l29.5,20c17.8-13.4,27.3-25.1,27.3-37.9c0.1-3.6-0.7-7.3-2.2-10.6
			l0,0c-12.3-28.4-61.8-51.8-96.3-59.6C183.9,255.8,219.5,282.5,218.9,303.1z"/>
		
			<linearGradient id="SVGID_4_" gradientUnits="userSpaceOnUse" x1="152.3906" y1="-17.5749" x2="152.3906" y2="-17.5749" gradientTransform="matrix(0.99 3.000000e-02 2.000000e-02 -0.99 -15.0152 222.1491)">
			<stop  offset="0.26" style="stop-color:#74A441;stop-opacity:0"/>
			<stop  offset="1" style="stop-color:#4C771F"/>
		</linearGradient>
		<path class="st4" d="M135.5,244.1"/>
	</g>
</g>
<g>
	<defs>
		<path id="SVGID_5_" d="M98.7,227.4c4.7-2.7,10.2-3.9,15.6-3.4c2.2-2.7,5-5.6,8.3-7.2c15-8.3,39-1.1,74,19.5l0,0
			c36.1,21.1,54,37.9,54,55.6c-0.2,4.2-1.1,8.4-2.7,12.3c2.2,4.5,3.4,8.3,2.7,12.8c0,17.2-18.4,34.5-54,55.1l0,0
			c-35.6,20.6-59,27.8-74.6,19.5c-4.5-2.2-7.8-6.1-10.5-10.5c-4.7,0.1-9.3-1.1-13.4-3.4c-15-8.9-21.1-32.9-21.1-74.6
			C77.5,259.6,83.1,235.7,98.7,227.4z M125.4,246.8c-25.1,13.9-25.1,99.7,0,113.6c25.6,15,94.6-36.1,95.2-57.9
			C220.6,273.5,149.9,233.4,125.4,246.8L125.4,246.8z"/>
	</defs>
	<clipPath id="SVGID_6_">
		<use xlink:href="#SVGID_5_"  style="overflow:visible;"/>
	</clipPath>
	<g class="st5">
		
			<linearGradient id="SVGID_7_" gradientUnits="userSpaceOnUse" x1="735.0726" y1="898.2372" x2="753.4326" y2="987.0472" gradientTransform="matrix(-0.51 0.84 0.84 0.51 -278.8042 -768.2037)">
			<stop  offset="0.26" style="stop-color:#74A441;stop-opacity:0"/>
			<stop  offset="1" style="stop-color:#4C771F"/>
		</linearGradient>
		<path class="st6" d="M123.2,356c-8.3-5-12.3-20.6-15-36.8l-31.8,15c2.7,22.2,8.3,36.1,18.9,42.3c3.2,1.6,6.5,2.8,10.1,3.4l0,0
			c30,4.5,74.6-26.7,97.9-52.4C181.7,349.9,141.1,366.5,123.2,356z"/>
		
			<linearGradient id="SVGID_8_" gradientUnits="userSpaceOnUse" x1="681.1887" y1="1001.5005" x2="681.1887" y2="1001.5005" gradientTransform="matrix(-0.51 0.84 0.84 0.51 -278.8042 -768.2037)">
			<stop  offset="0.26" style="stop-color:#74A441;stop-opacity:0"/>
			<stop  offset="1" style="stop-color:#4C771F"/>
		</linearGradient>
		<path class="st7" d="M215.1,314.8"/>
	</g>
</g>
<g>
	<defs>
		<path id="SVGID_9_" d="M98.7,227.4c4.7-2.7,10.2-3.9,15.6-3.4c2.2-2.7,5-5.6,8.3-7.2c15-8.3,39-1.1,74,19.5l0,0
			c36.1,21.1,54,37.9,54,55.6c-0.2,4.2-1.1,8.4-2.7,12.3c2.2,4.5,3.4,8.3,2.7,12.8c0,17.2-18.4,34.5-54,55.1l0,0
			c-35.6,20.6-59,27.8-74.6,19.5c-4.5-2.2-7.8-6.1-10.5-10.5c-4.7,0.1-9.3-1.1-13.4-3.4c-15-8.9-21.1-32.9-21.1-74.6
			C77.5,259.6,83.1,235.7,98.7,227.4z M125.4,246.8c-25.1,13.9-25.1,99.7,0,113.6c25.6,15,94.6-36.1,95.2-57.9
			C220.6,273.5,149.9,233.4,125.4,246.8L125.4,246.8z"/>
	</defs>
	<clipPath id="SVGID_10_">
		<use xlink:href="#SVGID_9_"  style="overflow:visible;"/>
	</clipPath>
	<g class="st8">
		
			<linearGradient id="SVGID_11_" gradientUnits="userSpaceOnUse" x1="181.4982" y1="-24.2851" x2="93.7683" y2="-56.2151" gradientTransform="matrix(1 0 0 -1 -1.88 228.16)">
			<stop  offset="0.26" style="stop-color:#74A441;stop-opacity:0"/>
			<stop  offset="1" style="stop-color:#4C771F"/>
		</linearGradient>
		<path class="st9" d="M125.4,246.9c8.9-5,23.3-2.7,38.4,2.7l4.5-28.4c-20-8.9-35.1-10.6-45.7-5c-3.3,1.6-5.6,3.9-8.3,7.2l0,0
			c-18.4,24.6-13.9,78.1-3.8,111.5C102.6,303.7,107.7,256.9,125.4,246.9z"/>
		
			<linearGradient id="SVGID_12_" gradientUnits="userSpaceOnUse" x1="117.86" y1="-122.23" x2="117.86" y2="-122.23" gradientTransform="matrix(1 0 0 -1 -1.88 228.16)">
			<stop  offset="0.26" style="stop-color:#FFFFFF;stop-opacity:0"/>
			<stop  offset="1" style="stop-color:#ABABAB"/>
		</linearGradient>
		<path class="st10" d="M116,350.4"/>
	</g>
</g>
</svg>
