<?xml version="1.0" standalone="no"?>
<!DOCTYPE svg PUBLIC "-//W3C//DTD SVG 20010904//EN"
 "http://www.w3.org/TR/2001/REC-SVG-20010904/DTD/svg10.dtd">
<svg version="1.0" xmlns="http://www.w3.org/2000/svg"
 width="1400.000000pt" height="1400.000000pt" viewBox="0 0 1400.000000 1400.000000"
 preserveAspectRatio="xMidYMid meet">

<g transform="translate(0.000000,1400.000000) scale(0.100000,-0.100000)"
fill="#000000" stroke="none">
<path d="M4118 12812 l-38 -3 0 -620 0 -621 303 5 c366 5 399 12 500 106 51
48 75 96 86 176 17 120 -16 230 -88 293 -29 26 -123 72 -146 72 -26 0 -16 15
24 33 51 23 83 52 117 107 23 38 28 58 32 131 4 75 1 92 -21 141 -32 69 -99
129 -175 156 -51 18 -85 21 -307 24 -137 2 -267 2 -287 0z m492 -148 c42 -12
69 -28 96 -55 33 -34 38 -46 42 -98 6 -78 -1 -103 -40 -147 -58 -66 -100 -77
-295 -82 l-173 -4 0 194 c0 107 3 198 7 201 3 4 73 7 155 7 107 0 165 -5 208
-16z m-17 -528 c74 -7 136 -36 175 -81 39 -44 45 -68 40 -150 -3 -53 -9 -71
-35 -102 -16 -21 -52 -49 -79 -63 -46 -24 -58 -25 -251 -28 l-203 -3 0 214 c0
117 2 216 4 218 6 5 276 1 349 -5z"/>
<path d="M5150 12190 l0 -620 75 0 75 0 -3 618 -2 617 -72 3 -73 3 0 -621z"/>
<path d="M8207 12803 c-4 -3 -7 -282 -7 -620 l0 -613 78 0 77 0 -3 158 -3 159
45 49 c31 34 48 45 53 37 5 -7 78 -100 163 -207 l155 -195 93 -1 93 0 -26 33
c-14 17 -53 66 -85 107 -32 41 -89 114 -127 161 -37 48 -89 114 -115 146 l-47
60 190 189 c104 104 189 192 189 195 0 4 -39 7 -87 8 l-88 2 -194 -195 c-107
-107 -198 -193 -203 -190 -4 3 -8 167 -8 365 l0 359 -68 0 c-38 0 -72 -3 -75
-7z"/>
<path d="M6745 12479 c-77 -10 -112 -25 -172 -69 -57 -43 -113 -122 -140 -193
-23 -64 -33 -191 -23 -290 19 -184 127 -319 289 -361 156 -40 333 7 417 110
38 46 78 129 69 144 -3 6 -37 10 -75 10 l-69 0 -21 -38 c-64 -114 -248 -138
-363 -47 -49 39 -87 113 -94 180 l-6 55 322 0 321 0 0 58 c-1 293 -191 477
-455 441z m113 -138 c52 -10 111 -50 137 -93 27 -44 56 -131 47 -140 -8 -8
-471 -12 -479 -4 -8 8 25 104 49 139 31 47 75 79 127 93 55 15 64 15 119 5z"/>
<path d="M7620 12479 c-170 -20 -270 -116 -270 -259 0 -134 81 -211 265 -254
215 -51 254 -75 255 -157 0 -37 -5 -50 -27 -72 -40 -37 -94 -57 -158 -57 -93
0 -158 37 -196 113 l-19 37 -75 0 c-41 0 -75 -3 -75 -7 0 -13 30 -94 45 -122
15 -29 66 -79 105 -103 32 -19 156 -48 210 -48 54 0 178 29 210 48 44 27 101
86 118 122 26 54 23 174 -6 222 -40 64 -95 92 -278 139 -148 37 -186 56 -208
103 -20 42 -20 47 1 91 19 41 97 85 150 85 41 0 122 -27 147 -49 10 -9 27 -35
37 -58 l18 -43 72 0 71 0 -7 43 c-27 157 -184 250 -385 226z"/>
<path d="M5504 12455 c-3 -8 -4 -162 -2 -342 5 -363 7 -375 75 -460 98 -123
330 -137 453 -26 26 24 51 43 54 43 3 0 6 -22 6 -50 l0 -50 75 0 75 0 0 450 0
450 -75 0 -75 0 0 -295 c0 -330 -3 -349 -68 -417 -50 -53 -106 -72 -187 -66
-78 7 -127 39 -156 102 -17 37 -19 70 -19 352 0 354 8 324 -91 324 -44 0 -61
-4 -65 -15z"/>
<path d="M8987 12464 c-3 -3 1 -20 8 -38 8 -17 59 -155 115 -306 56 -151 108
-292 116 -312 8 -21 20 -55 28 -75 64 -166 65 -182 19 -260 -29 -50 -74 -73
-148 -75 l-55 -2 0 -63 0 -63 68 0 c159 0 237 55 301 210 12 30 26 64 31 75 4
11 29 79 55 150 25 72 52 146 60 165 8 19 42 112 76 205 34 94 79 217 100 274
21 57 36 108 33 113 -3 4 -38 8 -78 8 l-74 0 -119 -361 c-66 -198 -124 -361
-129 -361 -9 -1 -50 119 -175 502 -34 107 -67 201 -72 208 -10 12 -148 18
-160 6z"/>
<path d="M5690 9813 c14 -3 29 -9 35 -14 5 -5 14 -9 20 -9 5 0 1 7 -9 15 -11
8 -31 14 -45 14 l-26 -2 25 -4z"/>
<path d="M5920 9689 c26 -17 70 -40 70 -35 0 5 -69 46 -78 46 -4 0 0 -5 8 -11z"/>
<path d="M5435 9680 c-3 -5 -1 -10 4 -10 6 0 11 5 11 10 0 6 -2 10 -4 10 -3 0
-8 -4 -11 -10z"/>
<path d="M5389 9653 c-13 -15 -12 -15 9 -4 23 12 28 21 13 21 -5 0 -15 -7 -22
-17z"/>
<path d="M6130 9564 c15 -17 16 -15 -50 -67 -9 -7 -58 -34 -110 -61 -52 -27
-103 -56 -112 -64 -10 -8 -18 -12 -18 -8 0 4 -17 -6 -38 -22 -20 -17 -55 -38
-77 -47 l-40 -18 2 -263 c3 -298 6 -286 -74 -238 -25 14 -47 24 -49 21 -3 -2
27 -21 65 -41 l69 -36 54 32 c29 17 76 46 104 63 56 36 139 80 139 74 0 -2 15
7 33 20 26 18 31 26 20 33 -9 7 -8 8 5 4 11 -4 39 5 68 21 l49 28 0 281 0 281
-27 12 c-24 11 -25 11 -13 -5z"/>
<path d="M5228 9559 c-16 -9 -18 -34 -18 -283 l0 -273 -45 -32 c-25 -18 -45
-36 -45 -42 0 -17 27 -9 68 21 23 17 46 30 51 30 6 0 4 12 -4 27 -11 21 -14
80 -14 260 0 128 2 240 5 248 5 13 16 10 62 -15 30 -16 57 -28 59 -27 5 5 -96
67 -110 67 -6 0 -2 7 9 15 22 16 8 20 -18 4z"/>
<path d="M5408 9430 c42 -26 56 -26 17 0 -16 11 -34 20 -40 20 -5 0 5 -9 23
-20z"/>
<path d="M5460 9406 c0 -4 109 -69 125 -74 6 -2 1 4 -10 13 -22 19 -115 68
-115 61z"/>
<path d="M5298 9072 c-39 -28 -49 -52 -23 -52 23 0 96 51 92 64 -7 20 -32 16
-69 -12z"/>
<path d="M5320 8936 c0 -6 87 -56 97 -56 8 0 -83 60 -92 60 -3 0 -5 -2 -5 -4z"/>
<path d="M4050 8748 c-135 -77 -303 -175 -375 -217 l-130 -77 -5 -439 -5 -440
-180 -105 c-99 -58 -265 -154 -368 -213 l-187 -108 2 -446 3 -445 100 -58 c54
-31 101 -62 102 -67 2 -6 -44 -39 -102 -73 -58 -34 -104 -67 -102 -73 2 -6
143 -92 313 -190 170 -98 372 -215 449 -261 77 -46 183 -108 235 -138 52 -31
186 -108 297 -172 111 -64 207 -116 212 -116 6 0 69 34 140 75 71 41 147 84
168 96 21 12 79 45 128 74 50 29 145 85 212 124 76 44 120 76 117 84 -3 6 -52
39 -109 72 -58 33 -105 62 -105 65 0 3 35 25 78 49 42 24 92 55 110 68 l32 24
0 433 c0 400 -1 434 -17 448 -10 8 -65 42 -123 76 -58 33 -172 99 -255 147
-82 48 -189 109 -237 137 -49 27 -88 53 -88 56 0 8 52 39 310 188 74 42 198
114 275 160 l140 82 -3 444 -2 444 -156 89 c-139 80 -155 91 -150 111 6 24 -8
42 -19 24 -14 -23 -56 -5 -239 100 -105 61 -198 110 -206 110 -8 0 -125 -64
-260 -142z m425 6 c55 -31 159 -91 230 -132 72 -42 167 -97 213 -123 46 -25
85 -49 88 -51 2 -3 -64 -45 -148 -93 -84 -49 -216 -125 -293 -170 -77 -45
-166 -96 -198 -114 l-57 -32 -138 79 c-75 43 -213 123 -307 177 -93 54 -187
108 -207 119 -21 12 -37 25 -35 30 2 7 154 99 287 173 25 14 113 65 195 113
220 128 204 122 240 100 17 -10 75 -44 130 -76z m-810 -407 c33 -18 173 -98
310 -178 138 -79 262 -150 278 -158 l27 -14 0 -399 c0 -219 -3 -398 -8 -398
-4 0 -39 19 -77 41 -84 50 -115 67 -180 103 -27 15 -102 58 -165 95 -63 38
-148 87 -187 110 l-73 42 0 394 c0 217 3 395 8 395 4 0 34 -15 67 -33z m-46
-836 c25 -16 93 -56 151 -89 135 -76 439 -251 462 -266 10 -6 18 -13 18 -17 0
-3 -55 -37 -122 -76 -68 -38 -184 -105 -258 -148 -229 -133 -303 -175 -306
-175 -2 0 -95 52 -206 117 -112 64 -264 151 -338 194 -74 42 -136 81 -137 86
-2 5 54 42 124 83 228 131 306 177 428 248 66 39 124 71 129 72 5 0 30 -13 55
-29z m905 -523 c116 -67 271 -155 344 -197 72 -41 132 -78 132 -82 0 -4 -57
-39 -127 -79 -71 -40 -164 -94 -208 -120 -254 -149 -344 -200 -355 -200 -7 0
-97 48 -199 107 -102 59 -253 146 -335 193 -83 48 -151 91 -153 96 -3 9 42 38
142 94 72 40 429 247 480 278 28 17 54 31 59 31 5 1 104 -54 220 -121z m-1463
-24 c111 -64 218 -125 238 -136 98 -55 130 -74 179 -105 l52 -34 0 -395 c0
-216 -2 -394 -4 -394 -5 0 -163 90 -260 148 -32 19 -104 61 -160 92 -55 31
-137 78 -181 104 l-80 48 0 394 c0 217 3 394 7 394 4 0 98 -52 209 -116z m634
-368 c28 -18 82 -49 120 -70 39 -22 122 -69 185 -106 63 -37 152 -89 198 -115
l82 -48 0 -399 0 -399 -42 25 c-24 13 -74 42 -113 63 -163 92 -363 207 -405
233 -25 16 -65 39 -90 53 l-45 25 -3 401 -2 402 32 -17 c18 -9 56 -31 83 -48z"/>
<path d="M5007 8863 c-38 -27 -44 -37 -28 -47 10 -7 91 50 91 64 0 17 -24 11
-63 -17z"/>
<path d="M4867 8763 c-34 -24 -49 -53 -29 -53 18 0 93 61 87 70 -9 15 -17 13
-58 -17z"/>
<path d="M6815 8727 c-49 -29 -214 -124 -365 -211 -151 -87 -283 -165 -292
-174 -17 -14 -18 -59 -18 -679 0 -452 -3 -663 -10 -663 -6 0 -28 9 -50 20 -24
12 -41 16 -45 10 -9 -15 -1 -23 54 -50 l51 -25 0 -481 0 -481 -152 -88 c-84
-49 -253 -147 -375 -218 l-223 -129 0 -423 0 -422 -51 -32 c-37 -23 -49 -35
-41 -43 8 -8 23 -5 53 11 l41 22 109 -62 c59 -35 106 -66 103 -70 -2 -4 -49
-33 -104 -65 -59 -34 -100 -64 -100 -73 0 -9 12 -23 28 -32 15 -8 146 -85 292
-169 146 -84 317 -183 380 -218 63 -36 246 -141 405 -232 160 -92 317 -182
351 -200 l61 -34 144 84 c79 46 254 147 389 225 135 78 286 166 335 194 50 29
108 63 130 76 22 12 112 64 200 115 88 52 187 109 220 127 78 44 92 58 77 75
-6 8 -54 38 -106 68 -53 30 -96 58 -96 62 0 3 47 33 104 67 57 33 106 68 110
76 3 8 6 206 6 439 0 471 5 431 -70 474 -41 23 -455 262 -587 339 l-93 54 0
525 c0 574 -4 535 56 570 27 17 5 40 -24 25 -10 -6 -22 -7 -26 -4 -3 3 -6 282
-6 619 l0 612 -127 73 c-71 39 -180 102 -243 139 -241 141 -396 230 -400 230
-3 -1 -45 -24 -95 -53z m448 -198 c183 -105 336 -195 341 -199 5 -5 -16 -21
-45 -36 -30 -15 -70 -37 -89 -49 -37 -23 -211 -124 -427 -248 l-133 -76 -127
73 c-71 40 -163 94 -206 120 -43 25 -80 46 -81 46 -11 0 -270 158 -272 165 -2
6 63 48 144 94 81 47 211 122 290 168 78 46 144 83 147 83 2 0 26 14 52 30 26
17 53 28 61 25 7 -2 162 -91 345 -196z m-1047 -268 c8 -8 129 -79 379 -221 55
-32 142 -82 193 -111 l92 -54 0 -397 c0 -219 -3 -398 -7 -398 -5 0 -25 10 -45
23 -38 23 -259 151 -403 233 -44 26 -115 66 -157 91 l-78 45 0 399 c0 219 4
399 8 399 4 0 12 -4 18 -9z m36 -893 c29 -17 98 -57 153 -88 179 -103 329
-189 402 -232 l72 -43 1 -399 c0 -317 -3 -396 -12 -388 -7 5 -69 41 -138 79
-173 97 -512 293 -527 305 -10 8 -13 101 -13 404 0 217 2 394 5 394 2 0 28
-14 57 -32z m93 -918 c10 -8 387 -225 465 -268 87 -48 80 -7 80 -444 0 -213
-1 -388 -3 -388 -9 0 -296 163 -492 280 -44 26 -108 62 -142 81 l-63 34 0 397
0 397 73 -41 c39 -22 77 -44 82 -48z m-203 -627 l3 -108 102 -60 c56 -33 103
-62 103 -65 0 -3 -43 -30 -95 -60 -110 -61 -123 -73 -105 -94 6 -8 63 -45 126
-81 63 -37 114 -68 114 -70 0 -6 -220 -135 -230 -135 -5 0 -96 50 -202 112
-106 61 -202 116 -213 122 -97 53 -275 160 -275 166 0 4 102 66 228 138 125
72 270 155 322 186 52 31 100 56 107 56 9 0 13 -31 15 -107z m1649 54 c52 -30
155 -89 229 -132 74 -43 179 -103 233 -134 53 -30 97 -58 97 -61 0 -3 -71 -45
-158 -95 -86 -49 -212 -122 -280 -162 -68 -40 -126 -73 -128 -73 -3 0 -31 -16
-62 -36 l-57 -37 -60 33 c-33 18 -86 48 -119 68 l-58 35 28 17 c16 9 63 36
104 60 112 66 130 79 123 95 -3 8 -50 40 -104 71 -54 30 -99 59 -99 63 0 5 42
32 93 61 50 29 98 60 105 68 8 10 12 50 12 114 0 54 2 98 4 98 2 0 46 -24 97
-53z m-2298 -410 c73 -41 348 -199 464 -267 61 -36 125 -73 142 -82 l31 -17 0
-396 c0 -225 -4 -395 -9 -395 -5 0 -46 21 -91 48 -131 76 -201 116 -265 151
-33 19 -71 41 -85 51 -14 9 -61 36 -105 60 -110 60 -135 78 -135 101 0 17 5
20 28 14 22 -4 38 2 75 30 53 41 57 52 22 61 -19 5 -37 -3 -75 -30 l-50 -36 0
365 c0 201 3 365 6 365 3 0 24 -11 47 -23z m1049 -265 c46 -27 147 -85 225
-131 l142 -82 43 22 c24 12 59 32 78 44 19 12 58 34 85 50 28 15 95 54 151 86
55 32 106 59 112 59 7 0 57 -27 113 -60 55 -33 105 -60 110 -60 24 0 1 -19
-74 -61 -45 -26 -138 -79 -207 -119 -265 -154 -399 -230 -409 -230 -9 0 -78
39 -396 223 -66 38 -159 91 -207 119 -49 28 -88 53 -88 57 0 8 212 130 227
131 7 0 50 -22 95 -48z m-275 -179 c37 -20 104 -58 148 -84 44 -26 123 -71
175 -100 52 -28 113 -64 135 -79 22 -15 68 -42 103 -60 l62 -33 0 -398 c0
-220 -3 -399 -6 -399 -4 0 -44 22 -88 49 -45 27 -103 61 -129 75 -102 56 -136
76 -235 135 -56 33 -105 61 -109 61 -4 0 -35 19 -70 41 l-63 41 0 394 c0 217
2 394 4 394 2 0 35 -17 73 -37z"/>
<path d="M5657 4910 c-51 -32 -60 -63 -22 -68 30 -3 117 55 113 76 -5 28 -40
25 -91 -8z"/>
<path d="M9010 8639 c26 -17 70 -40 70 -35 0 5 -69 46 -78 46 -4 0 0 -5 8 -11z"/>
<path d="M8938 8614 c-16 -8 -28 -17 -28 -19 0 -10 16 -4 40 15 30 23 25 25
-12 4z"/>
<path d="M8678 8464 c-39 -21 -35 -28 5 -8 37 19 44 24 31 24 -5 -1 -21 -8
-36 -16z"/>
<path d="M9291 8476 c10 -9 69 -36 69 -32 0 6 -55 36 -66 36 -4 0 -5 -2 -3 -4z"/>
<path d="M8420 8315 c-25 -14 -39 -25 -31 -25 14 0 81 38 81 46 0 6 0 6 -50
-21z"/>
<path d="M9626 8285 c10 -8 23 -15 28 -15 6 0 1 7 -10 15 -10 8 -23 15 -28 15
-6 0 -1 -7 10 -15z"/>
<path d="M8290 8213 c0 -19 3 -24 8 -15 5 7 15 11 23 9 8 -2 11 -2 7 0 -5 3
-8 11 -8 19 0 8 -7 14 -15 14 -10 0 -15 -10 -15 -27z"/>
<path d="M9700 8231 c0 -5 -38 -30 -85 -56 -47 -27 -85 -52 -85 -56 0 -5 -8
-9 -19 -9 -10 0 -24 -7 -31 -15 -7 -8 -19 -15 -26 -15 -8 0 -14 -4 -14 -10 0
-5 -6 -10 -13 -10 -8 0 -60 -28 -116 -62 -155 -94 -173 -105 -209 -122 -18 -9
-47 -25 -63 -37 -23 -16 -33 -19 -42 -10 -6 6 -18 11 -26 10 -11 0 -8 -4 7
-11 l22 -11 0 -404 c0 -315 -3 -403 -12 -404 -7 0 -4 -4 7 -8 20 -9 59 7 98
38 10 8 25 16 33 17 19 3 119 63 145 87 10 10 19 15 19 13 0 -3 15 3 33 13 17
10 59 33 92 52 97 54 145 86 140 93 -3 3 -2 4 2 1 3 -3 41 14 85 38 l78 42 0
423 c0 275 -3 422 -10 422 -5 0 -10 -4 -10 -9z m-550 -1115 c0 -2 -7 -7 -16
-10 -8 -3 -12 -2 -9 4 6 10 25 14 25 6z"/>
<path d="M8360 8183 c8 -4 32 -17 53 -30 22 -14 41 -22 43 -20 7 6 -82 57 -98
56 -9 0 -9 -2 2 -6z"/>
<path d="M8596 8045 c10 -8 24 -14 29 -14 6 0 1 6 -9 14 -11 8 -24 15 -30 15
-5 0 -1 -7 10 -15z"/>
<path d="M8645 8021 c9 -16 94 -55 102 -48 3 4 1 7 -6 7 -6 0 -29 11 -51 25
-42 27 -55 31 -45 16z"/>
<path d="M8850 7907 c0 -2 23 -18 50 -35 28 -17 50 -28 50 -24 0 4 -23 20 -50
35 -28 16 -50 26 -50 24z"/>
<path d="M8538 7607 c-36 -21 -47 -40 -30 -51 11 -6 112 52 112 64 0 17 -43
10 -82 -13z"/>
<path d="M5145 7531 c-7 -13 68 -61 95 -61 30 0 24 15 -14 38 -46 27 -73 35
-81 23z"/>
<path d="M8365 7505 c-41 -25 -52 -48 -25 -52 21 -4 112 55 105 67 -10 16 -38
11 -80 -15z"/>
<path d="M8281 7448 c-1 -11 -14 -21 -36 -27 -48 -13 -99 -51 -86 -64 7 -7 27
-1 64 18 l54 29 37 -22 c47 -28 62 -28 19 -1 -19 12 -37 34 -42 52 -5 18 -10
24 -10 15z"/>
<path d="M5326 7433 c-13 -13 -5 -23 34 -43 40 -20 80 -26 80 -12 0 17 -103
66 -114 55z"/>
<path d="M5505 7330 c-9 -15 0 -24 50 -50 33 -17 49 -20 56 -13 8 8 0 18 -27
35 -51 32 -72 39 -79 28z"/>
<path d="M8026 7297 c-43 -24 -58 -47 -31 -47 24 0 106 50 99 61 -8 14 -26 11
-68 -14z"/>
<path d="M8520 7266 c0 -5 59 -40 83 -49 30 -11 19 0 -27 27 -43 25 -56 30
-56 22z"/>
<path d="M5675 7230 c-6 -10 61 -56 90 -62 35 -6 24 18 -20 45 -50 29 -61 32
-70 17z"/>
<path d="M7857 7196 c-47 -29 -50 -32 -42 -46 8 -13 105 39 105 58 0 18 -20
14 -63 -12z"/>
<path d="M5850 7120 c0 -13 98 -62 110 -55 17 11 11 19 -30 43 -41 23 -80 29
-80 12z"/>
<path d="M8770 7119 c26 -17 90 -50 90 -45 0 5 -90 56 -99 56 -3 0 1 -5 9 -11z"/>
<path d="M8884 7055 c11 -8 24 -15 30 -15 5 0 1 7 -10 15 -10 8 -23 14 -29 14
-5 0 -1 -6 9 -14z"/>
<path d="M9779 6722 c-74 -43 -231 -134 -349 -202 -118 -68 -227 -132 -242
-142 l-28 -19 0 -862 c0 -474 4 -867 8 -873 4 -6 53 -37 109 -69 56 -32 100
-62 98 -66 -3 -4 -50 -33 -105 -65 -56 -33 -100 -66 -100 -74 0 -9 57 -48 138
-94 75 -44 239 -139 365 -212 125 -73 236 -135 247 -139 13 -4 104 43 317 166
449 260 456 264 460 276 2 6 -43 39 -101 73 -58 34 -108 65 -110 69 -3 4 41
34 97 66 56 32 105 63 109 69 4 6 8 401 8 878 l0 866 -112 65 c-536 309 -639
367 -656 367 -10 0 -79 -35 -153 -78z m245 -14 c50 -28 143 -81 206 -118 63
-37 179 -104 258 -149 78 -46 142 -84 142 -86 0 -2 -39 -26 -87 -53 -49 -28
-126 -72 -173 -99 -315 -183 -422 -243 -436 -243 -17 0 -83 36 -339 185 -82
48 -194 112 -248 143 -54 30 -100 59 -103 63 -5 8 1 13 96 68 30 17 174 101
320 186 146 84 267 154 269 154 2 1 45 -22 95 -51z m-644 -503 c63 -37 131
-76 150 -87 19 -11 110 -63 203 -116 l167 -97 0 -397 c0 -219 -3 -398 -6 -398
-4 0 -43 22 -88 49 -75 46 -425 247 -543 313 l-53 30 0 399 0 400 28 -15 c15
-8 79 -44 142 -81z m-97 -812 c34 -20 107 -62 162 -93 55 -32 161 -92 235
-135 74 -43 154 -89 178 -102 l42 -25 0 -389 c0 -258 -3 -389 -10 -389 -6 0
-28 11 -50 25 -22 14 -42 25 -44 25 -3 0 -49 26 -103 58 -54 33 -145 85 -203
118 -58 32 -143 82 -190 110 l-85 50 -3 392 c-1 216 0 392 4 392 3 0 33 -16
67 -37z"/>
<path d="M8158 6493 c-16 -10 -28 -23 -28 -30 0 -17 5 -16 40 2 16 8 35 14 42
13 7 -2 13 4 13 12 0 21 -35 23 -67 3z"/>
<path d="M8280 6447 c0 -11 24 -27 83 -55 4 -2 7 3 7 11 0 15 -58 57 -79 57
-6 0 -11 -6 -11 -13z"/>
<path d="M8023 6409 c-33 -21 -43 -39 -23 -39 17 0 65 27 79 44 20 24 -16 21
-56 -5z"/>
<path d="M8426 6373 c-12 -12 -6 -20 33 -41 44 -25 61 -28 61 -9 0 15 -84 59
-94 50z"/>
<path d="M7873 6319 c-60 -39 -31 -55 31 -18 20 12 36 25 36 30 0 16 -34 10
-67 -12z"/>
<path d="M8570 6281 c0 -11 66 -51 86 -51 25 0 15 16 -25 38 -41 23 -61 28
-61 13z"/>
<path d="M7742 6234 c-23 -14 -42 -29 -42 -33 0 -20 15 -18 54 6 52 33 51 32
40 43 -6 6 -25 0 -52 -16z"/>
<path d="M8720 6197 c0 -20 79 -62 92 -49 7 7 -3 18 -31 36 -45 29 -61 32 -61
13z"/>
<path d="M8870 6110 c0 -12 59 -50 78 -50 22 0 12 20 -20 40 -36 22 -58 26
-58 10z"/>
<path d="M9012 6028 c6 -16 79 -58 90 -52 16 10 8 22 -28 43 -39 24 -68 27
-62 9z"/>
<path d="M5171 4570 c-36 -27 -47 -50 -22 -50 17 0 101 62 95 71 -9 16 -30 10
-73 -21z"/>
<path d="M4295 4572 c-16 -10 -52 -31 -80 -46 -27 -16 -102 -59 -165 -96 -63
-37 -199 -115 -302 -175 l-188 -108 0 -443 0 -443 73 -42 c39 -23 89 -52 111
-66 l39 -25 -112 -65 c-61 -36 -111 -69 -111 -73 0 -10 119 -82 465 -280 138
-79 269 -156 292 -172 23 -15 44 -28 46 -28 3 0 108 -60 233 -133 407 -237
460 -267 474 -267 7 0 74 35 149 78 475 274 597 346 609 357 17 15 -12 39
-130 106 -43 24 -78 46 -78 49 1 3 49 33 108 66 l107 62 3 437 c1 305 -1 442
-9 451 -6 7 -34 26 -62 42 -29 17 -135 78 -237 137 -102 59 -239 138 -305 177
-209 121 -366 215 -377 226 -7 7 2 18 31 37 23 14 39 30 36 35 -10 16 -28 12
-67 -15 -20 -14 -44 -25 -52 -25 -8 0 -63 28 -123 63 -171 100 -341 197 -344
197 -2 0 -17 -8 -34 -18z m90 -60 c28 -16 127 -73 220 -127 94 -54 204 -118
245 -142 41 -23 97 -55 124 -71 l49 -29 -94 -55 c-52 -31 -148 -87 -214 -125
-66 -39 -165 -96 -220 -128 -55 -32 -116 -67 -136 -78 l-35 -20 -240 137
c-360 208 -444 258 -444 265 0 4 35 27 78 51 42 24 124 71 182 105 228 134
422 244 430 245 3 0 28 -13 55 -28z m1002 -583 c164 -95 315 -182 335 -193 21
-12 38 -24 38 -28 0 -7 -10 -13 -412 -244 -147 -85 -272 -154 -279 -154 -11 0
-179 94 -418 234 -62 36 -115 66 -117 66 -9 0 -154 92 -154 98 0 4 48 35 108
68 59 34 175 101 257 149 83 48 168 97 190 110 22 13 60 35 85 49 25 14 50 24
57 22 6 -3 145 -82 310 -177z m-1702 114 c33 -20 121 -71 195 -113 225 -129
292 -168 353 -205 l57 -35 0 -395 c0 -217 -2 -395 -4 -395 -6 0 -163 88 -208
116 -36 23 -110 65 -148 85 -8 4 -60 34 -115 67 -55 32 -124 72 -152 88 l-53
29 0 398 c0 218 3 397 8 397 4 0 34 -17 67 -37z m718 -419 c29 -15 75 -41 102
-58 28 -18 82 -49 120 -71 63 -34 226 -128 363 -208 l52 -31 0 -399 0 -398
-52 29 c-29 16 -129 73 -223 127 -93 54 -226 131 -295 170 l-125 72 -2 396
c-1 219 0 397 3 397 3 0 28 -12 57 -26z"/>
<path d="M5007 4463 c-37 -26 -44 -37 -28 -47 10 -7 101 50 101 64 0 18 -35
10 -73 -17z"/>
<path d="M8522 4023 l-213 -126 -22 20 c-24 23 -80 53 -97 53 -5 0 -10 -6 -10
-12 0 -15 72 -58 97 -58 29 0 -1 -22 -137 -100 -69 -40 -131 -76 -137 -82 -10
-8 -13 -109 -13 -443 l0 -434 -27 -21 c-34 -27 -19 -45 21 -25 16 8 33 15 38
15 16 0 188 -104 185 -113 -1 -4 -47 -33 -102 -65 -55 -32 -101 -65 -103 -73
-1 -9 19 -27 50 -45 29 -17 112 -64 183 -106 72 -41 206 -119 300 -173 93 -53
179 -103 190 -111 28 -20 50 -17 93 9 20 13 107 64 192 112 271 154 495 286
510 301 18 18 14 22 -100 87 -52 30 -96 59 -97 64 -2 5 43 36 99 69 l103 60 3
446 2 446 -142 83 c-79 45 -213 123 -298 172 -85 49 -189 109 -231 133 -42 24
-87 44 -100 43 -13 -1 -120 -57 -237 -126z m328 38 c47 -26 119 -67 160 -91
80 -46 89 -51 303 -173 75 -43 139 -82 141 -86 3 -4 -86 -60 -197 -124 -111
-65 -213 -124 -227 -132 -145 -85 -254 -145 -265 -145 -8 0 -72 33 -142 74
-71 40 -220 126 -333 191 -113 64 -209 121 -213 125 -9 8 30 33 220 143 65 37
195 112 288 167 94 54 172 99 175 99 3 1 43 -21 90 -48z m-665 -488 c72 -42
164 -95 205 -118 41 -22 102 -57 135 -77 33 -20 93 -55 133 -77 l72 -42 0
-400 0 -399 -57 31 c-32 18 -80 46 -108 62 -68 41 -268 157 -394 228 -57 33
-110 67 -117 77 -11 13 -14 96 -13 405 0 213 4 387 7 387 4 0 66 -35 137 -77z"/>
<path d="M8302 3061 c-50 -37 -55 -46 -37 -61 30 -25 135 40 122 75 -9 23 -40
18 -85 -14z"/>
<path d="M8137 2950 c-50 -31 -60 -61 -24 -68 26 -5 119 57 115 77 -5 27 -40
23 -91 -9z"/>
<path d="M8002 4058 c6 -16 78 -58 101 -58 29 0 19 18 -26 45 -47 27 -81 33
-75 13z"/>
<path d="M7833 2734 c-17 -9 -39 -24 -49 -35 -15 -17 -16 -19 0 -25 20 -8 96
42 96 62 0 18 -7 17 -47 -2z"/>
<path d="M7648 2612 c-38 -27 -49 -52 -25 -52 18 0 97 57 97 70 0 18 -34 10
-72 -18z"/>
<path d="M6930 2550 c8 -5 20 -10 25 -10 6 0 3 5 -5 10 -8 5 -19 10 -25 10 -5
0 -3 -5 5 -10z"/>
<path d="M6676 2535 c-11 -8 -15 -15 -9 -15 6 0 16 7 23 15 16 19 11 19 -14 0z"/>
<path d="M7482 2499 c-30 -22 -40 -35 -33 -42 12 -12 105 41 103 58 -2 21 -29
15 -70 -16z"/>
<path d="M6616 2504 c-11 -8 -16 -14 -10 -14 13 0 39 18 34 24 -3 2 -14 -2
-24 -10z"/>
<path d="M7326 2395 c-43 -29 -51 -30 -89 -10 -15 8 -25 10 -22 5 3 -5 21 -17
40 -26 32 -15 33 -17 17 -35 -9 -10 -20 -19 -24 -19 -8 0 -210 -111 -218 -120
-12 -14 -69 -50 -79 -50 -5 0 -33 -13 -61 -30 -60 -35 -75 -37 -115 -10 -16
11 -34 20 -40 20 -5 0 11 -14 38 -30 l47 -30 0 -258 c0 -187 -3 -261 -12 -270
-43 -43 97 21 227 103 28 18 82 49 120 70 94 51 136 80 128 88 -3 4 -1 7 5 7
8 0 11 74 11 268 l0 267 45 28 c44 28 61 57 32 57 -7 0 -30 -11 -50 -25z"/>
<path d="M6395 2375 c-23 -13 -41 -32 -43 -44 -4 -22 5 -26 27 -12 9 6 10 10
2 16 -16 10 3 31 34 39 14 4 25 11 25 16 0 12 3 13 -45 -15z"/>
<path d="M6500 2251 c32 -26 130 -77 110 -57 -8 8 -42 29 -75 46 -38 20 -51
24 -35 11z"/>
<path d="M6351 1786 c11 -11 123 -67 114 -58 -11 12 -102 62 -112 62 -4 0 -4
-2 -2 -4z"/>
<path d="M6585 1653 c14 -14 153 -89 140 -75 -5 5 -41 27 -80 48 -38 20 -65
33 -60 27z"/>
</g>
</svg>
